# xmcd
#
# Track frame offsets:
#	150
#	20879
#	37962
#	57132
#	74609
#	95043
#	108583
#	130821
#	147899
#	166148
#	187183
#	208134
#	233120
#	249985
#	276219
#	297176
#	318410
#
# Disc length: 4430 seconds
#
# Revision: 0
# Processed by: cddbd v1.5.2PL0 Copyright (c) Steve Scherf et al.
# Submitted via: EZCDAudioConverter 8.3.2.1
#
DISCID=06114c11
DTITLE=Melodías parar Orar - Volumen 1
DYEAR=1900
DGENRE=
TTITLE0=Antes de formarte
TTITLE1=En Ti
TTITLE2=Canción de unidad
TTITLE3=Cristo te necesita
TTITLE4=El Señor nos da su amor
TTITLE5=Busca primero
TTITLE6=Espíritu de Dios ven a mi
TTITLE7=Hombre de Barro
TTITLE8=Joven de mi país
TTITLE9=Nueva generación
TTITLE10=Señor de la vida
TTITLE11=Si yo no tengo amor
TTITLE12=Solo le pido a Dios
TTITLE13=Y Yo lo resucitare
TTITLE14=Canción de envío
TTITLE15=Señor de la Vida
TTITLE16=Madre de los jóvenes
EXTD=
EXTT0=
EXTT1=
EXTT2=
EXTT3=
EXTT4=
EXTT5=
EXTT6=
EXTT7=
EXTT8=
EXTT9=
EXTT10=
EXTT11=
EXTT12=
EXTT13=
EXTT14=
EXTT15=
EXTT16=
PLAYORDER=
